/* XPM */
static char *b1cc835cf5ac421b9cd6c6f572d6afabQoZE12OIxKNgDLWJ[] = {
/* columns rows colors chars-per-pixel */
"50 50 5 1 ",
"  c #292F49",
". c #1C1F2E",
"X c #17040C",
"o c #7B809B",
"O c white",
/* pixels */
"      ....XXXXXX....           ..               oo",
"      ....XXXXXX....           ..               oo",
"      ....XXXXXX....           ..               oo",
"      ....XXXXXX......       oo                   ",
"      ....XXXXXX......       oo                   ",
"      ....XXXXXX....                              ",
"      ....XXXXXX....                              ",
"      ....XXXXXX....           ..                 ",
"      ....XXXXXX....           ..                 ",
"    ......XXXXXX........       ..  ....           ",
"    ......XXXXXX........       ..  ....           ",
"      ....XXXXXX.......................           ",
"      ....XXXXXX.......................           ",
"    ......XXXXXX.........  ..............         ",
"    ......XXXXXX.........  ..............         ",
"    ......XXXXXX.........  ..............         ",
"    ..XXXXXXXXXX...............................   ",
"    ..XXXXXXXXXX...............................   ",
"oooo..XXXXXXXXXXXXXX...................           ",
"oooo..XXXXXXXXXXXXXX...................           ",
"oooo..XXXXXXXXXXXXXX..............................",
"oooo..XXXXXXXXXXXXXX..............................",
"XXXXXXXXXXXXXXXXXXXXXXXXXXXXXXXXXXXXXXXXXXXXXXXXXX",
"XXXXXXXXXXXXXXXXXXXXXXXXXXXXXXXXXXXXXXXXXXXXXXXXXX",
"XXXXXXXX..XXXXXXXXXXXXXXXXXXXXXXXXXXXXXXXXXXXXXXXX",
"XXXXXXXX..XXXXXXXXXXXXXXXXXXXXXXXXXXXXXXXXXXXXXXXX",
"XX....oo....XX..ooooooooXooooooooooooooooXXXXXXXXX",
"XX....oo....XX..ooooooooXooooooooooooooooXXXXXXXXX",
"XX....oo....XX..ooooooooXooooooooooooooooXXXXXXXXX",
"oooooooo              ooooooooooooooooo    XXXXXXX",
"oooooooo              ooooooooooooooooo    XXXXXXX",
"oooooooo            oo       oooo          ooooXXX",
"oooooooo            oo       oooo          ooooXXX",
"..oooooooo                               ooooooXXX",
"..oooooooo                               ooooooXXX",
"....oooooo              o                  ..ooXXX",
"....oooooo              o                  ..ooXXX",
"      oo                                   ....XXX",
"      oo                                   ....XXX",
"..                                         ....XXX",
"..                                         ....XXX",
"..                                         ....XXX",
"....                                       ....XXX",
"....                                       ....XXX",
"....                                       ....XXX",
"....                                       ....XXX",
"                      oo                   ..XXXXX",
"                      oo                   ..XXXXX",
"                    oooo                     ..XXX",
"                    oooo                     ..XXX"
};
